<!-- <?xml version="1.0" standalone="no"?>
<!DOCTYPE svg PUBLIC "-//W3C//DTD SVG 20010904//EN"
 "http://www.w3.org/TR/2001/REC-SVG-20010904/DTD/svg10.dtd"> -->
<svg version="1.0" xmlns="http://www.w3.org/2000/svg"
 width="508.000000pt" height="454.000000pt" viewBox="0 0 508.000000 454.000000"
 preserveAspectRatio="xMidYMid meet">

<g transform="translate(0.000000,454.000000) scale(0.100000,-0.100000)"
fill="#000000" stroke="none">
<path d="M0 2270 l0 -2270 2540 0 2540 0 0 2270 0 2270 -2540 0 -2540 0 0
-2270z m4125 1358 c187 -97 219 -371 82 -701 -96 -230 -292 -445 -485 -533
-153 -70 -325 -70 -434 0 -31 19 -59 40 -63 46 -3 5 -14 10 -23 10 -11 0 -31
21 -49 53 -135 226 -13 683 248 933 93 88 206 168 274 195 137 52 345 51 450
-3z m-1620 -78 c125 -8 336 -29 335 -34 -1 0 -59 -233 -129 -516 l-128 -515
-52 0 c-35 1 -55 6 -61 15 -8 12 -38 15 -162 14 -138 -1 -161 -4 -238 -29
-315 -102 -533 -317 -593 -584 -22 -97 -21 -158 3 -218 17 -39 31 -55 73 -80
52 -30 130 -59 176 -65 29 -4 32 6 116 382 l52 235 383 3 c305 2 381 0 377
-10 -70 -161 -257 -621 -327 -803 -50 -132 -97 -245 -103 -251 -33 -30 -373
-74 -577 -74 -69 0 -195 7 -280 15 -131 12 -177 21 -295 58 -127 40 -151 51
-252 121 -64 44 -121 76 -135 76 -31 0 -38 9 -123 144 l-69 109 -18 136 c-24
185 -23 191 21 402 37 172 46 199 124 376 78 176 94 203 205 354 111 151 132
174 270 292 126 109 173 142 308 217 140 77 181 95 339 144 170 52 192 56 385
74 113 11 210 20 215 21 6 0 78 -4 160 -9z m1177 -1477 l3 -58 40 57 40 58
218 0 219 0 -34 -42 c-106 -135 -312 -375 -440 -514 l-28 -30 38 -252 38 -252
-161 0 -162 0 -9 43 c-8 39 -11 42 -45 45 -30 3 -38 8 -45 32 l-9 29 -64 -75
-63 -74 -180 0 -179 0 20 28 c11 15 101 119 200 232 100 113 179 210 176 217
-22 60 -115 541 -115 596 0 16 19 17 270 17 l269 0 3 -57z"/>
<path d="M3695 3083 c-36 -9 -96 -77 -127 -143 -24 -52 -32 -83 -35 -150 -5
-76 -3 -88 17 -112 20 -26 23 -27 50 -13 37 19 107 99 136 157 34 68 56 167
45 206 -7 22 -6 32 2 35 33 12 -48 31 -88 20z"/>
</g>
</svg>
